<svg width="118" height="40" viewBox="0 0 118 40" fill="none" xmlns="http://www.w3.org/2000/svg">
<path d="M8.02043 6.10634L7.53719 7.50236C7.10765 12.5137 6.82128 17.0418 6.6781 21.0867C8.75423 21.7668 10.6156 22.0174 12.2622 21.8384C13.9088 21.6594 15.2869 20.9256 16.3965 19.637C17.542 18.3484 18.3116 16.5765 18.7053 14.3214C18.9559 12.818 18.9201 11.4756 18.598 10.2944C18.2758 9.11315 17.7747 8.20037 17.0945 7.55605C16.4144 6.87594 15.6269 6.33901 14.7321 5.94526C13.8372 5.51572 12.9423 5.26515 12.0474 5.19356C11.1525 5.12197 10.3471 5.17566 9.63122 5.35464C8.91531 5.49782 8.37838 5.74839 8.02043 6.10634ZM11.0272 0.253804C15.8238 0.182212 19.3855 1.93618 21.7121 5.51572C23.6451 8.55832 24.2357 12.0305 23.484 15.9322C22.6965 19.8697 20.7278 22.8407 17.5778 24.8452C14.6784 26.7066 11.2062 27.3151 7.16134 26.6708C6.91077 26.6708 6.696 26.7066 6.51702 26.7782C6.33805 26.814 6.19487 26.9034 6.08748 27.0466C6.01589 27.1898 5.9622 27.3688 5.9264 27.5836C5.89061 27.7625 5.87271 27.9773 5.87271 28.2279C5.87271 28.4784 5.87271 28.7469 5.87271 29.0333C5.87271 29.3196 5.87271 29.6239 5.87271 29.946C5.9085 30.2682 5.9085 30.6083 5.87271 30.9662C5.87271 31.1094 5.85481 31.3958 5.81901 31.8253C5.81901 32.1833 5.81901 32.4696 5.81901 32.6844C5.81901 32.8992 5.80112 33.2034 5.76532 33.5972C5.72953 33.9909 5.69373 34.3131 5.65794 34.5636C5.62214 34.8142 5.56845 35.1364 5.49686 35.5301C5.46106 35.8881 5.38947 36.1923 5.28208 36.4429C5.1747 36.6577 5.04941 36.9082 4.90623 37.1946C4.79885 37.4452 4.65567 37.642 4.47669 37.7852C4.29771 37.9284 4.10084 38.0537 3.88607 38.1611C3.67129 38.2685 3.42073 38.3043 3.13436 38.2685C2.848 38.2327 2.52584 38.1611 2.16789 38.0537C1.63096 37.8389 1.21931 37.3915 0.932949 36.7114C0.682381 35.9955 0.557098 35.1185 0.557098 34.0804C0.557098 33.0423 0.592893 32.058 0.664484 31.1273C0.736074 30.1966 0.84346 29.1764 0.986642 28.0668C1.12982 26.9571 1.21931 26.1875 1.25511 25.758C1.25511 25.579 1.2909 24.4157 1.36249 22.2679C1.46988 20.1202 1.57727 18.0978 1.68465 16.2006C1.82783 14.2677 1.98891 12.1558 2.16789 9.86485C2.34687 7.57395 2.56164 5.6768 2.8122 4.17339C3.06277 2.66999 3.33124 1.793 3.6176 1.54244C3.83237 1.36346 4.53038 1.16658 5.71163 0.951811C6.92867 0.737039 8.05622 0.57596 9.09429 0.468573C10.1681 0.325394 10.8125 0.253804 11.0272 0.253804ZM32.2712 17.2745C32.2712 17.5251 32.2354 18.3305 32.1638 19.6907C32.128 21.0509 32.0743 22.3395 32.0028 23.5566C31.9312 24.7736 31.8238 26.2233 31.6806 27.9057C31.5732 29.5881 31.4479 31.0378 31.3047 32.2548C31.1616 33.4719 30.9647 34.5815 30.7141 35.5838C30.4636 36.5861 30.1951 37.1946 29.9087 37.4094C28.8707 38.1611 27.9579 38.1969 27.1704 37.5168C26.4187 36.8009 26.0607 35.7091 26.0965 34.2415C26.1323 32.8097 26.186 31.0199 26.2576 28.8722C26.365 26.7245 26.5082 24.1114 26.6871 21.033C26.9019 17.9188 27.2062 15.2342 27.5999 12.979C27.9937 10.7239 28.4411 9.43531 28.9423 9.11315C30.1593 8.36145 31.1079 8.52253 31.788 9.59639C32.5039 10.6702 32.7724 12.0126 32.5934 13.6234C32.5934 13.6592 32.5397 14.1603 32.4323 15.1268C32.3607 16.0575 32.307 16.7734 32.2712 17.2745ZM43.3915 27.0466C43.7853 26.0444 43.6958 25.579 43.1231 25.6506C42.3356 25.7222 41.4228 26.4202 40.3847 27.7446C39.1677 29.2838 38.7203 30.7514 39.0424 32.1475C39.4362 33.8298 40.6353 32.6844 42.6398 28.7111C42.962 28.031 43.2126 27.4762 43.3915 27.0466ZM44.7876 35.3153C44.716 35.029 44.6981 34.7784 44.7339 34.5636C44.8055 34.3131 44.8055 34.1878 44.7339 34.1878C44.6623 34.152 44.5549 34.1878 44.4117 34.2952C44.3043 34.4026 44.0359 34.6531 43.6063 35.0469C40.2058 37.8747 37.5927 38.4295 35.7671 36.7114C34.3711 35.3869 33.8521 33.275 34.21 30.3756C34.568 27.1182 35.8387 24.5588 38.0222 22.6975C39.4899 21.4446 41.1901 20.7466 43.1231 20.6035C43.2663 20.5677 44.2327 20.5677 46.0225 20.6035C47.8481 20.6393 48.8861 20.7108 49.1367 20.8182C49.8884 21.2478 50.3358 22.0532 50.479 23.2344C50.658 24.4157 50.6401 26.0265 50.4253 28.0668C50.2106 30.1071 50.0853 31.2526 50.0495 31.5031C49.9779 35.2975 49.1904 37.4273 47.687 37.8926C46.7563 38.1432 45.9688 37.7673 45.3245 36.7651C45.0023 36.3355 44.8234 35.8523 44.7876 35.3153ZM62.4303 17.4356C64.4707 17.1134 66.171 17.2387 67.5312 17.8114C68.8914 18.3484 69.8758 19.1001 70.4843 20.0665C71.0928 20.9972 71.4866 22.3216 71.6655 24.0398C71.8445 25.7222 71.8803 27.1898 71.7729 28.4426C71.7013 29.6955 71.5403 31.2526 71.2897 33.1139C70.8959 36.0492 70.0369 37.6778 68.7124 38C67.7817 38.179 67.0479 37.6778 66.511 36.4966C66.2246 35.7807 66.1173 34.9574 66.1889 34.0267C66.1889 33.8119 66.2425 33.3108 66.3499 32.5233C67.1732 26.5455 66.9763 23.0912 65.7593 22.1606C65.2224 21.8026 64.5423 21.8026 63.719 22.1606C62.5735 22.6617 61.6607 23.6103 60.9806 25.0063C60.3363 26.4023 59.8889 27.8699 59.6383 29.4091C59.3877 30.9125 59.1372 32.3801 58.8866 33.8119C58.636 35.2438 58.2244 36.3355 57.6517 37.0872C57.0789 37.8389 56.2735 38.0537 55.2355 37.7315C54.7343 37.5526 54.3406 37.2125 54.0542 36.7114C53.7679 36.2102 53.5889 35.5659 53.5173 34.7784C53.4815 33.9909 53.4636 33.2929 53.4636 32.6844C53.4994 32.0401 53.571 31.2705 53.6784 30.3756C53.7858 29.4807 53.8395 28.9259 53.8395 28.7111C53.8395 28.6037 53.8395 28.3353 53.8395 27.9057C54.0184 19.0643 55.5218 15.5921 58.3497 17.4893C58.4929 17.5967 58.6181 17.6861 58.7255 17.7577C58.9761 17.9725 59.1372 18.2231 59.2088 18.5094C59.2446 18.6168 59.2982 18.6705 59.3698 18.6705C59.4772 18.6347 59.7815 18.5094 60.2826 18.2947C61.0343 17.9725 61.7502 17.6861 62.4303 17.4356ZM82.6239 13.6771C83.8052 13.7129 84.7717 13.9276 85.5234 14.3214C86.3109 14.6793 86.7762 15.091 86.9194 15.5563C87.0626 16.0217 87.0268 16.487 86.812 16.9523C86.5972 17.4177 86.1319 17.8293 85.416 18.1873C84.7001 18.5094 83.8231 18.6884 82.785 18.7242C82.4271 18.7242 82.1407 18.8137 81.9259 18.9927C81.7112 19.1359 81.568 19.3506 81.4964 19.637C81.4248 19.9233 81.3711 20.2455 81.3353 20.6035C81.3353 20.9614 81.3353 21.3552 81.3353 21.7847C81.3711 22.2142 81.3711 22.6617 81.3353 23.127C81.3353 23.1986 81.2995 23.9145 81.2279 25.2748C81.1563 26.635 81.0847 27.8341 81.0132 28.8722C80.9416 29.8745 80.8342 31.0557 80.691 32.4159C80.5478 33.7404 80.3509 34.8321 80.1004 35.6912C79.8856 36.5503 79.635 37.1051 79.3487 37.3557C78.418 38.0358 77.541 38.0895 76.7177 37.5168C75.9302 36.944 75.5186 35.9955 75.4828 34.671C75.4828 32.8455 75.626 29.9997 75.9123 26.1338C76.2345 22.2321 76.4135 19.8339 76.4492 18.939C76.3777 18.9032 76.2524 18.8674 76.0734 18.8316C75.5723 18.7242 75.1606 18.6347 74.8385 18.5631C74.5521 18.4915 74.1404 18.3662 73.6035 18.1873C73.1024 18.0083 72.7265 17.8293 72.476 17.6503C72.2254 17.4356 71.9927 17.185 71.778 16.8986C71.5632 16.6123 71.5095 16.2722 71.6169 15.8785C71.7243 15.4847 71.9748 15.0552 72.3686 14.5898C72.5476 14.3751 72.7623 14.1961 73.0129 14.0529C73.2993 13.9097 73.6214 13.8202 73.9794 13.7844C74.3731 13.7129 74.6953 13.6771 74.9458 13.6771C75.1964 13.6413 75.5365 13.6234 75.966 13.6234C76.4314 13.6234 76.7177 13.6234 76.8251 13.6234C76.8967 13.2296 76.9504 12.9075 76.9862 12.6569C77.022 12.4063 77.0757 12.0842 77.1473 11.6904C77.2546 11.2967 77.362 10.9745 77.4694 10.7239C77.6126 10.4734 77.7737 10.2228 77.9527 9.97224C78.1674 9.68588 78.3822 9.5069 78.597 9.43531C78.8475 9.32792 79.1518 9.29213 79.5098 9.32792C79.8677 9.36372 80.2615 9.489 80.691 9.70378C81.3711 10.0975 81.747 10.5987 81.8186 11.2072C81.9259 11.8157 81.9617 12.3526 81.9259 12.818C81.9259 13.2833 82.1586 13.5697 82.6239 13.6771ZM91.5248 25.758C90.6657 26.2233 90.1109 26.814 89.8603 27.5299C89.7172 27.9952 89.8245 28.21 90.1825 28.1742C90.6836 28.1384 91.5248 27.6372 92.7061 26.6708C93.8157 25.7759 93.9947 25.3284 93.243 25.3284C92.8135 25.3642 92.2407 25.5074 91.5248 25.758ZM86.6388 34.8321L86.2629 34.4563C85.7618 34.0983 85.368 33.7761 85.0817 33.4898C84.8311 33.2034 84.67 32.8634 84.5984 32.4696C84.5268 32.0401 84.491 31.7179 84.491 31.5031C84.491 31.2526 84.5447 30.7693 84.6521 30.0534C84.7595 29.3375 84.8311 28.7469 84.8669 28.2816C85.2248 24.8452 86.8177 22.4827 89.6456 21.1941C91.8649 20.1918 94.0126 20.1381 96.0887 21.033C98.0217 21.8563 98.9345 23.1628 98.8271 24.9526C98.6839 27.2793 96.6973 29.7671 92.8672 32.4159C92.3302 32.7739 92.3302 32.9708 92.8672 33.0065C93.0103 33.0065 93.3325 33.0065 93.8336 33.0065C96.3393 32.8634 97.7532 33.2034 98.0754 34.0267C98.2544 34.4563 98.1828 35.029 97.8606 35.7449C97.3595 36.9977 96.3572 37.7315 94.8538 37.9463C93.3862 38.1611 91.8828 37.9642 90.3436 37.3557C88.8044 36.7114 87.5694 35.8702 86.6388 34.8321ZM110.193 27.0466C110.587 26.0444 110.497 25.579 109.925 25.6506C109.137 25.7222 108.224 26.4202 107.186 27.7446C105.969 29.2838 105.522 30.7514 105.844 32.1475C106.238 33.8298 107.437 32.6844 109.442 28.7111C109.764 28.031 110.014 27.4762 110.193 27.0466ZM111.589 35.3153C111.518 35.029 111.5 34.7784 111.536 34.5636C111.607 34.3131 111.607 34.1878 111.536 34.1878C111.464 34.152 111.357 34.1878 111.213 34.2952C111.106 34.4026 110.838 34.6531 110.408 35.0469C107.007 37.8747 104.394 38.4295 102.569 36.7114C101.173 35.3869 100.654 33.275 101.012 30.3756C101.37 27.1182 102.64 24.5588 104.824 22.6975C106.292 21.4446 107.992 20.7466 109.925 20.6035C110.068 20.5677 111.034 20.5677 112.824 20.6035C114.65 20.6393 115.688 20.7108 115.938 20.8182C116.69 21.2478 117.138 22.0532 117.281 23.2344C117.46 24.4157 117.442 26.0265 117.227 28.0668C117.012 30.1071 116.887 31.2526 116.851 31.5031C116.78 35.2975 115.992 37.4273 114.489 37.8926C113.558 38.1432 112.77 37.7673 112.126 36.7651C111.804 36.3355 111.625 35.8523 111.589 35.3153Z" fill="#66BF84"/>
</svg>
